<?xml version="1.0" standalone="no"?><!DOCTYPE svg PUBLIC "-//W3C//DTD SVG 1.1//EN" "http://www.w3.org/Graphics/SVG/1.1/DTD/svg11.dtd"><svg t="1768632158107" class="icon" viewBox="0 0 1024 1024" version="1.1" xmlns="http://www.w3.org/2000/svg" p-id="19844" width="24" height="24" xmlns:xlink="http://www.w3.org/1999/xlink"><path d="M198.414699 394.653501v264.755589a63.35703 63.35703 0 0 1-64.188991 63.35703c-35.582332 0-70.140712-28.414668-70.140712-63.35703V394.653501c0-34.55838 34.55838-62.909051 70.140712-62.909052a63.805009 63.805009 0 0 1 64.188991 62.909052z m25.214818 358.959173c0 37.502242 30.782557 67.644829 69.116761 67.64483h46.333828l0.703967 139.705451c0 84.348046 128.825961 83.644079 128.825961 0v-139.705451h86.779932v139.705451c0 83.83607 129.529928 84.092058 129.529928 0v-139.705451h47.101792c37.75823 0 68.604784-30.142587 68.604785-67.64483v-410.22077H223.629517v410.22077z m578.532882-432.363733h-581.092762c0-97.91541 59.709201-182.903426 148.345047-227.253347L324.872772 13.359374C318.345078 1.967908 334.920301-5.071762 340.48804 4.527788l45.309876 81.404184a321.136947 321.136947 0 0 1 252.660156 0L683.51196 4.847773c5.75973-9.855538 22.142962-2.55988 15.615268 8.703592l-44.541912 80.444229c87.931878 44.349921 147.641079 129.401934 147.64108 227.253347zM404.037061 194.406887a24.254863 24.254863 0 0 0-48.509726 0c0 13.247379 10.751496 23.934878 23.998875 23.934878a24.254863 24.254863 0 0 0 24.510851-23.934878z m264.563598 0a24.126869 24.126869 0 1 0-48.381732 0 24.126869 24.126869 0 0 0 48.445729 0h-0.063997z m221.23763 137.337562a63.35703 63.35703 0 0 0-64.188991 62.909052v264.755589c0 35.19835 28.926644 63.35703 64.188991 63.35703 35.83832 0 70.140712-28.414668 70.140712-63.35703V394.653501c0-35.19835-34.55838-62.909051-70.140712-62.909052z" fill="#3DDB63" p-id="19845"></path></svg>