<?xml version="1.0" standalone="no"?><!DOCTYPE svg PUBLIC "-//W3C//DTD SVG 1.1//EN" "http://www.w3.org/Graphics/SVG/1.1/DTD/svg11.dtd"><svg class="icon" width="24px" height="24.00px" viewBox="0 0 1024 1024" version="1.1" xmlns="http://www.w3.org/2000/svg"><path d="M0 0m320 0l384 0q320 0 320 320l0 384q0 320-320 320l-384 0q-320 0-320-320l0-384q0-320 320-320Z" fill="#4D4D4D" /><path d="M584.64 504a189.2 189.2 0 0 1-13.28 72.56 124.08 124.08 0 0 1-96 78.48 160.64 160.64 0 0 1-84.96-5.36 123.2 123.2 0 0 1-75.84-72.56 180.8 180.8 0 0 1-12.96-60.56 210.88 210.88 0 0 1 5.92-64.88 137.44 137.44 0 0 1 36.88-65.6 125.36 125.36 0 0 1 64-33.04 165.52 165.52 0 0 1 80.56 2.88 123.76 123.76 0 0 1 81.92 74.32 174.96 174.96 0 0 1 12.88 56c0.24 6.4 0.64 12.24 0.88 17.76z m-54.48 0a149.2 149.2 0 0 0-9.36-54.24A85.2 85.2 0 0 0 488 408a78.96 78.96 0 0 0-38.16-12.16 83.04 83.04 0 0 0-48 10.16 84.08 84.08 0 0 0-36.48 44.32A144 144 0 0 0 356.16 496a154.56 154.56 0 0 0 9.04 62.08 82.16 82.16 0 0 0 110.32 48 77.84 77.84 0 0 0 43.68-44.32A145.76 145.76 0 0 0 530.16 504zM606.24 569.44h48.96c1.92 0 2.72 0 3.2 2.48a47.52 47.52 0 0 0 28.48 34.96 88 88 0 0 0 46 8 73.6 73.6 0 0 0 32-8.96 39.04 39.04 0 0 0 20.4-25.44 32.8 32.8 0 0 0-13.12-35.36A82.8 82.8 0 0 0 744 532.4c-17.6-4.56-35.36-8.56-52.96-12.96a134.48 134.48 0 0 1-48-20.32 68.88 68.88 0 0 1-29.44-54 80 80 0 0 1 20.24-60.56 97.84 97.84 0 0 1 42.16-26.96 152 152 0 0 1 62.56-7.04 123.76 123.76 0 0 1 51.84 14.8 82.32 82.32 0 0 1 43.68 62.64c0.48 3.28 0.56 6.56 0.8 9.92h-50.48c-0.8-3.52-1.36-7.12-2.48-10.48A42.8 42.8 0 0 0 757.04 400a80 80 0 0 0-65.44 0 37.12 37.12 0 0 0-22.88 25.92 30.4 30.4 0 0 0 13.04 34.56 91.92 91.92 0 0 0 29.36 12.24c16 3.92 32 7.44 48 11.36a162.48 162.48 0 0 1 44.24 16.64 66.88 66.88 0 0 1 32.96 39.04c10.48 35.92 1.2 80-42.56 103.2a133.84 133.84 0 0 1-48.56 14.16 184.64 184.64 0 0 1-58.96-2.24 111.28 111.28 0 0 1-49.2-22.32 81.76 81.76 0 0 1-29.92-55.44c-0.48-2.4-0.64-4.88-0.88-7.68zM220.24 434.32h51.28v218.96h-51.28zM245.68 405.36a28.08 28.08 0 1 1 0-56 28.08 28.08 0 1 1 0 56z" fill="#FFFFFF" /></svg>